<?xml version="1.0" standalone="no"?>
<!DOCTYPE svg PUBLIC "-//W3C//DTD SVG 20010904//EN"
 "http://www.w3.org/TR/2001/REC-SVG-20010904/DTD/svg10.dtd">
<svg version="1.0" xmlns="http://www.w3.org/2000/svg"
 width="260.000000pt" height="260.000000pt" viewBox="0 0 260.000000 260.000000"
 preserveAspectRatio="xMidYMid meet">
<metadata>
Created by potrace 1.11, written by Peter Selinger 2001-2013
</metadata>
<g transform="translate(0.000000,260.000000) scale(0.100000,-0.100000)"
fill="#000000" stroke="none">
<path d="M1088 2588 c-5 -12 -18 -18 -41 -18 -19 0 -55 -3 -81 -6 -36 -5 -46
-11 -46 -25 0 -21 -26 -26 -32 -7 -5 15 -58 -19 -58 -38 0 -8 -4 -14 -10 -14
-5 0 -10 7 -10 16 0 11 -8 9 -35 -12 -19 -14 -32 -30 -29 -35 3 -5 -2 -9 -11
-9 -9 0 -13 5 -10 10 9 14 -1 12 -35 -5 -17 -9 -30 -22 -30 -30 0 -18 -20 -20
-20 -2 -1 7 -6 5 -14 -5 -7 -10 -17 -18 -23 -18 -12 0 -65 -55 -64 -67 1 -4
-5 -8 -11 -8 -7 0 -12 7 -10 15 1 10 -3 8 -13 -5 -9 -11 -20 -20 -26 -20 -14
0 -28 -26 -30 -55 -1 -17 -3 -19 -6 -7 -6 25 -22 21 -29 -7 -4 -16 -11 -23
-21 -19 -9 4 -16 -2 -20 -15 -2 -11 -13 -22 -24 -25 -14 -4 -19 -14 -19 -41 0
-35 -14 -49 -23 -23 -3 7 -9 2 -15 -13 -6 -14 -20 -33 -31 -42 -12 -10 -21
-25 -21 -33 0 -8 -5 -14 -12 -12 -7 1 -17 -17 -23 -41 -6 -24 -14 -40 -17 -36
-4 3 -4 13 -1 22 5 13 3 14 -6 6 -7 -6 -15 -31 -18 -55 -4 -26 -14 -49 -25
-57 -10 -7 -18 -23 -18 -36 0 -13 -9 -31 -20 -41 -11 -10 -20 -24 -20 -32 0
-7 -7 -13 -15 -13 -8 0 -16 -9 -16 -20 -1 -11 -3 -24 -4 -30 -1 -5 -3 -37 -4
-70 -1 -46 -6 -65 -21 -80 -24 -24 -25 -30 -5 -30 19 0 19 -16 0 -24 -13 -4
-15 -35 -15 -186 0 -137 3 -180 13 -180 9 0 8 -3 -2 -9 -11 -7 -9 -13 8 -30
17 -17 21 -33 21 -86 0 -54 3 -66 20 -75 11 -6 20 -17 20 -25 0 -8 9 -32 20
-52 11 -21 20 -45 20 -54 0 -9 9 -24 20 -34 11 -10 20 -31 20 -46 0 -16 7 -32
17 -38 10 -5 23 -24 29 -43 6 -18 16 -32 22 -31 5 1 13 -9 16 -22 4 -14 13
-25 20 -25 8 0 17 -11 20 -25 4 -14 13 -25 21 -25 7 0 17 -9 20 -20 3 -11 12
-20 20 -20 8 0 17 -9 20 -20 3 -11 12 -20 19 -20 7 0 18 -11 24 -25 6 -14 16
-25 21 -25 6 0 26 -16 45 -35 20 -19 40 -35 45 -35 5 0 13 -9 16 -20 3 -11 15
-20 25 -20 10 0 32 -11 48 -25 17 -14 39 -25 51 -25 12 0 29 -9 38 -20 10 -11
23 -20 29 -20 7 0 15 -7 18 -16 3 -9 13 -14 21 -10 8 3 17 1 20 -4 4 -6 19
-10 35 -10 17 0 34 -8 43 -20 9 -14 30 -21 70 -26 31 -4 57 -11 57 -17 0 -5 8
-7 18 -5 10 3 23 -1 30 -9 11 -11 61 -13 270 -10 285 5 281 5 302 22 8 7 38
16 65 19 75 9 83 11 103 29 10 9 29 17 41 17 14 0 25 7 28 20 7 25 33 27 34 3
0 -15 2 -15 10 2 10 20 33 36 72 51 9 3 17 11 17 16 0 5 9 7 19 3 14 -4 21 0
26 14 3 11 9 20 13 19 9 -3 67 51 67 63 0 5 5 8 10 7 6 -2 9 -6 7 -10 -1 -5 3
-8 8 -8 6 0 13 14 17 30 3 17 10 30 15 30 5 0 6 -4 3 -10 -3 -5 -1 -10 5 -10
7 0 14 9 17 19 3 11 13 21 24 24 10 3 19 12 19 21 0 9 7 16 15 16 9 0 20 11
25 25 5 14 15 24 21 23 7 -2 17 11 22 29 5 17 18 34 28 36 11 3 19 14 19 26 0
12 6 21 15 21 8 0 17 11 21 25 4 14 9 24 12 21 11 -12 32 18 32 44 0 19 6 29
20 33 16 4 20 14 20 50 0 43 4 51 64 117 7 8 16 44 18 79 3 44 10 67 21 76 15
11 17 42 17 296 0 273 -1 285 -20 297 -15 9 -20 23 -20 57 0 31 -5 47 -15 51
-8 4 -18 23 -21 44 -4 22 -12 41 -20 44 -7 3 -16 21 -20 41 -3 19 -15 40 -25
46 -12 6 -19 21 -19 39 0 19 -7 34 -20 42 -11 7 -20 21 -20 30 0 10 -9 27 -20
38 -11 11 -20 24 -20 30 0 5 -9 15 -20 22 -11 7 -20 19 -20 26 0 7 -7 15 -16
19 -9 3 -37 28 -63 55 -46 49 -96 98 -132 131 -11 10 -23 15 -28 13 -4 -3 -13
6 -19 19 -7 14 -15 24 -19 23 -14 -3 -61 21 -65 33 -2 6 -17 13 -32 15 -16 2
-36 10 -46 19 -11 10 -23 14 -28 11 -5 -3 -25 8 -44 24 -19 16 -38 27 -41 23
-3 -3 -22 4 -42 15 -28 17 -35 18 -35 7 0 -8 -4 -15 -10 -15 -5 0 -10 7 -10
15 0 19 -40 35 -86 35 -22 0 -37 6 -40 15 -6 14 -8 13 -19 -2 -13 -17 -14 -17
-20 0 -6 15 -26 17 -200 17 -162 0 -194 -2 -199 -15 -7 -20 -24 -19 -28 3 -3
16 -4 16 -10 0z m-69 -510 c-22 -6 -82 -6 -160 0 l-124 9 160 1 c120 0 151 -2
124 -10z m154 5 c-7 -2 -21 -2 -30 0 -10 3 -4 5 12 5 17 0 24 -2 18 -5z m487
-153 c25 -22 45 -30 71 -30 29 0 39 -5 44 -19 3 -11 15 -23 26 -26 20 -7 50
-47 101 -134 25 -42 28 -55 28 -155 0 -89 -3 -114 -19 -140 -10 -17 -22 -46
-26 -63 -3 -18 -11 -33 -16 -33 -6 0 -36 -27 -67 -59 -50 -52 -65 -61 -112
-70 -63 -12 -164 -52 -192 -75 -36 -31 -24 -50 86 -132 42 -32 68 -44 92 -44
l34 0 0 -58 c0 -53 2 -60 25 -70 14 -7 52 -12 84 -12 l59 0 1 -47 c0 -27 2
-57 3 -68 2 -14 -3 -20 -14 -19 -10 0 -61 1 -115 2 l-96 2 -55 57 -55 56 -62
1 c-71 1 -87 9 -56 28 29 18 28 68 -1 95 -41 37 -68 46 -125 39 -57 -7 -72 7
-32 32 15 10 19 21 17 50 -3 32 -8 38 -35 47 -31 11 -83 51 -100 77 -12 21
-104 88 -119 88 -17 0 -48 46 -39 60 4 6 106 10 297 10 249 0 295 2 325 17 42
19 133 126 133 154 0 11 5 30 11 41 9 16 8 35 -1 77 -15 73 -21 83 -56 100
-16 7 -42 25 -57 40 l-28 26 -349 5 -349 5 -43 41 c-24 23 -57 49 -75 58 -34
17 -58 50 -48 66 4 6 167 10 438 10 l432 -1 35 -29z m-1580 -235 c0 -8 -4 -15
-10 -15 -5 0 -10 7 -10 15 0 8 5 15 10 15 6 0 10 -7 10 -15z m2460 -795 c0 -5
-5 -10 -11 -10 -5 0 -7 5 -4 10 3 6 8 10 11 10 2 0 4 -4 4 -10z"/>
</g>
</svg>
